# AST/ASF file generated using VICON BodyLanguage
# -----------------------------------------------
:version 1.10
:name VICON
:units
  mass 1.0
  length 0.45
  angle deg
:documentation
   .ast/.asf automatically generated from VICON data using
   VICON BodyBuilder and BodyLanguage model FoxedUp or BRILLIANT.MOD
:root
   order TX TY TZ RX RY RZ
   axis XYZ
   position 0 0 0  
   orientation 0 0 0 
:bonedata
  begin
     id 1 
     name lhipjoint
     direction 0.643822 -0.745931 0.170529 
     length 2.62041 
     axis 0 0 0  XYZ
  end
  begin
     id 2 
     name lfemur
     direction 0.34202 -0.939693 0  
     length 7.92179  
     axis 0 0 20  XYZ
    dof rx ry rz
    limits (-160.0 20.0)
           (-70.0 70.0)
           (-60.0 70.0)
  end
  begin
     id 3 
     name ltibia
     direction 0.34202 -0.939693 0   
     length 8.16326   
     axis 0 0 20   XYZ
    dof rx
    limits (-10.0 170.0)
  end
  begin
     id 4 
     name lfoot
     direction 0.0837341 -0.230058 0.969568   
     length 1.94455   
     axis -90 7.62852e-016 20   XYZ
    dof rx rz
    limits (-45.0 90.0)
           (-70.0 20.0)
  end
  begin
     id 5 
     name ltoes
     direction 1.5356e-011 -4.21695e-011 1   
     length 0.978804   
     axis -90 7.62852e-016 20   XYZ
    dof rx
    limits (-90.0 20.0)
  end
  begin
     id 6 
     name rhipjoint
     direction -0.656883 -0.73503 0.168037   
     length 2.65927  
     axis 0 0 0  XYZ 
  end
  begin
     id 7 
     name rfemur
     direction -0.34202 -0.939693 0   
     length 7.58746   
     axis 0 0 -20   XYZ
    dof rx ry rz
    limits (-160.0 20.0)
           (-70.0 70.0)
           (-70.0 60.0)
  end
  begin
     id 8 
     name rtibia
     direction -0.342117 -0.939657 0   
     length 8.27303   
     axis 0 0 -20   XYZ
    dof rx
    limits (-10.0 170.0)
 end
 begin
     id 9 
     name rfoot
     direction -0.0685862 -0.188439 0.979687   
     length 2.13088  
     axis -90 -7.62852e-016 -20   XYZ
    dof rx rz
    limits (-45.0 90.0)
           (-20.0 70.0)
  end
  begin
     id 10 
     name rtoes
     direction -1.53538e-011 -4.21514e-011 1   
     length 1.07326   
     axis -90 -7.62852e-016 -20   XYZ
    dof rx
    limits (-90.0 20.0)
  end
  begin
     id 11 
     name lowerback
     direction -0.0358974 0.997216 0.065354   
     length 1.87174   
     axis 0 0 0   XYZ
    dof rx ry rz
    limits (-20.0 45.0)
           (-30.0 30.0)
           (-30.0 30.0)
  end
  begin
     id 12 
     name upperback
     direction 0.0202028 0.998565 0.0495864   
     length 1.8684   
     axis 0 0 0   XYZ
    dof rx ry rz
    limits (-20.0 45.0)
           (-30.0 30.0)
           (-30.0 30.0)
  end
  begin
     id 13 
     name thorax
     direction 0.0366367 0.999163 0.0182199   
     length 1.87747   
     axis 0 0 0   XYZ
    dof rx ry rz
    limits (-20.0 45.0)
           (-30.0 30.0)
           (-30.0 30.0)
  end
  begin
     id 14 
     name lowerneck
     direction 0.0284381 0.999578 -0.00598196   
     length 1.84583   
     axis 0 0 0   XYZ
    dof rx ry rz
    limits (-20.0 45.0)
           (-30.0 30.0)
           (-30.0 30.0)
  end
  begin
     id 15 
     name upperneck
     direction -0.0888142 0.993333 -0.0734973   
     length 1.84467   
     axis 0 0 0   XYZ
    dof rx ry rz
    limits (-20.0 45.0)
           (-30.0 30.0)
           (-30.0 30.0)
  end
  begin
     id 16
     name head
     direction -0.0296474 0.999102 -0.0302696  
     length 1.86566  
     axis 0 0 0   XYZ
    dof rx ry rz
    limits (-20.0 45.0)
           (-30.0 30.0)
           (-30.0 30.0)
  end
  begin
     id 17 
     name lclavicle
     direction 0.933925 0.35714 -0.0153523  
     length 3.93442  
     axis 0 0 0   XYZ
    dof ry rz
    limits (-20.0 10.0)
           (0.0 20.0)
  end
  begin
     id 18 
     name lhumerus
     direction 1 -4.48967e-011 2.12044e-027   
     length 5.78174   
     axis 180 -30 -90   XYZ
    dof rx ry rz
    limits (-60.0 90.0)
           (-90.0 90.0)
           (-90.0 90.0)
  end
  begin
     id 19
     name lradius
     direction 1 -4.48972e-011 6.45701e-027   
     length 3.53992   
     axis 180 -30 -90   XYZ
    dof rx
    limits (-10.0 170.0)
  end
  begin
     id 20
     name lwrist
     direction 1 -4.48981e-011 1.70244e-026   
     length 1.76996   
     axis -1.1226e-014 90 90   XYZ
    dof ry
    limits (-180.0 0.0)
 end
  begin
     id 21 
     name lhand
     direction 1 -4.4879e-011 3.40615e-026   
     length 0.550243   
     axis -2.17265e-014 90 90   XYZ
    dof rx rz
    limits (-90.0 90.0)
           (-45.0 45.0)
  end
  begin
     id 22 
     name lfingers
     direction 1 -4.49029e-011 6.80911e-026   
     length 0.44362   
     axis -4.34526e-014 90 90   XYZ
    dof rx
    limits (0.0 90.0)
  end
  begin
     id 23
     name lthumb
     direction 0.707107 -6.34923e-011 0.707107   
     length 0.636952   
     axis -90 45 -1.62303e-014   XYZ
    dof rx rz
    limits (-45.0 45.0)
           (-45.0 45.0)
  end
  begin
     id 24 
     name rclavicle
     direction -0.950832 0.305106 0.0531883   
     length 3.96125  
     axis 0 0 0   XYZ 
    dof ry rz
    limits (-10.0 20.0)
           (-20.0 0.0)
  end
  begin
     id 25 
     name rhumerus
     direction -1 -4.48961e-011 -6.07392e-030  
     length 5.79352   
     axis 180 30 90   XYZ
    dof rx ry rz
    limits (-90.0 60.0)
           (-90.0 90.0)
           (-90.0 90.0)
  end
  begin
     id 26 
     name rradius
     direction -1 -4.48964e-011 5.97548e-027   
     length 3.37081   
     axis 180 30 90   XYZ
    dof rx
    limits (-10.0 170.0)
  end
  begin
     id 27 
     name rwrist
     direction -1 -4.49021e-011 1.7023e-026   
     length 1.68541   
     axis -1.1226e-014 -90 -90   XYZ
    dof ry
    limits (-180.0 0.0)
  end
  begin
     id 28
     name rhand
     direction -1 -4.48867e-011 3.40563e-026   
     length 0.679827   
     axis -2.17265e-014 -90 -90   XYZ
    dof rx rz
    limits (-90.0 90.0)
           (-45.0 45.0)
  end
  begin
     id 29
     name rfingers
     direction -1 -4.49024e-011 6.80917e-026   
     length 0.548094   
     axis -4.34526e-014 -90 -90   XYZ
    dof rx
    limits (0.0 90.0)
  end
  begin
     id 30
     name rthumb
     direction -0.707107 -6.3488e-011 0.707107   
     length 0.786956   
     axis -90 -45 1.62303e-014   XYZ
    dof rx rz
    limits (-45.0 45.0)
           (-45.0 45.0)
  end
:hierarchy
  begin
    root lhipjoint rhipjoint lowerback
    lhipjoint lfemur
    lfemur ltibia
    ltibia lfoot
    lfoot ltoes
    rhipjoint rfemur
    rfemur rtibia
    rtibia rfoot
    rfoot rtoes
    lowerback upperback
    upperback thorax
    thorax lowerneck lclavicle rclavicle
    lowerneck upperneck
    upperneck head
    lclavicle lhumerus
    lhumerus lradius
    lradius lwrist
    lwrist lhand lthumb
    lhand lfingers
    rclavicle rhumerus
    rhumerus rradius
    rradius rwrist
    rwrist rhand rthumb
    rhand rfingers
  end

#!OML:ASF H:\Terrain\Patient Classification 1\PaulMetrics\Match1Take2\PaulMetrics.ASF
:FULLY-SPECIFIED
:DEGREES
78
root 11.0792 18.1714 -18.9538 -163.536 34.4299 182.646
lowerback -8.49828 0.0219294 -3.95494
upperback -6.17357 0.729976 1.49523
thorax -1.70752 0.710349 3.81603
lowerneck -4.03108 6.88974 4.79787
upperneck 10.5866 10.1804 -8.1319
head 4.48885 4.93929 -2.69798
rclavicle 1.88084e-014 -1.35174e-014
rhumerus -49.4561 16.7839 -84.4483
rradius 56.4166
rwrist -13.2465
rhand -16.3641 -33.8231
rfingers 7.12502
rthumb 9.84886 -63.5728
lclavicle 1.88084e-014 -1.35174e-014
lhumerus -57.0674 -5.48071 85.1271
lradius 36.9497
lwrist 1.00002
lhand -9.18351 -5.9371
lfingers 7.12502
lthumb 16.7698 23.3587
rfemur -14.9779 5.69595 26.5553
rtibia 21.8584
rfoot -18.2757 -17.4415
rtoes -7.98564
lfemur -43.0425 3.16469 -22.3796
ltibia 26.3318
lfoot -5.42813 12.683
ltoes -18.2294
79
root 11.1403 18.1741 -19.0701 -163.327 34.375 182.921
lowerback -8.65334 -0.0148686 -3.82616
upperback -6.16112 0.681094 1.52385
thorax -1.60266 0.680911 3.77213
lowerneck -4.39439 6.95061 4.99497
upperneck 10.7486 10.2414 -8.13697
head 4.61377 4.96061 -2.71001
rclavicle -5.98311e-014 -1.5207e-014
rhumerus -49.2972 16.6089 -84.3999
rradius 56.6765
rwrist -12.8896
rhand -16.1991 -34.1462
rfingers 7.12502
rthumb 10.008 -63.8882
lclavicle -5.98311e-014 -1.5207e-014
lhumerus -57.0062 -5.40543 84.8221
lradius 36.8443
lwrist 0.934849
lhand -9.24964 -5.92498
lfingers 7.12502
lthumb 16.7061 23.3762
rfemur -14.2365 5.44999 26.8212
rtibia 21.2487
rfoot -18.1672 -17.3366
rtoes -8.95269
lfemur -43.1878 3.04352 -22.2649
ltibia 24.9534
lfoot -4.79058 14.2155
ltoes -19.1277
80
root 11.203 18.1755 -19.1801 -163.002 34.3512 183.241
lowerback -8.79292 -0.00629556 -3.72445
upperback -6.25258 0.704128 1.55348
thorax -1.62236 0.69811 3.74817
lowerneck -4.48522 6.99784 5.20963
upperneck 10.8236 10.3032 -8.23087
head 4.67196 4.99064 -2.76318
rclavicle 2.69074e-014 5.56597e-015
rhumerus -49.2605 16.3913 -84.3941
rradius 56.8783
rwrist -12.6895
rhand -16.0149 -34.0927
rfingers 7.12502
rthumb 10.1858 -63.8261
lclavicle 2.69074e-014 5.56597e-015
lhumerus -57.0591 -5.4209 84.612
lradius 36.8545
lwrist 0.980038
lhand -9.04704 -5.34191
lfingers 7.12502
lthumb 16.9012 23.9427
rfemur -13.6303 5.47342 27.0829
rtibia 20.7054
rfoot -18.4988 -16.9788
rtoes -6.69545
lfemur -43.4384 3.26671 -22.344
ltibia 23.6536
lfoot -4.20226 15.8725
ltoes -16.4897
81
root 11.2675 18.1705 -19.2918 -162.849 34.3145 183.417
lowerback -8.8632 0.0281547 -3.80478
upperback -6.34096 0.769498 1.5713
thorax -1.68422 0.742141 3.81689
lowerneck -4.18419 6.97884 5.07403
upperneck 10.5363 10.2538 -8.099
head 4.5165 4.97886 -2.7212
rclavicle -1.66544e-014 -1.55052e-014
rhumerus -49.3537 16.1064 -84.3881
rradius 57.0356
rwrist -12.8765
rhand -16.4145 -33.9286
rfingers 7.12502
rthumb 9.80029 -63.6806
lclavicle -1.66544e-014 -1.55052e-014
lhumerus -57.1258 -5.55356 84.5518
lradius 36.8808
lwrist 0.981336
lhand -8.94796 -4.884
lfingers 7.12502
lthumb 16.9965 24.3924
rfemur -12.9762 5.35408 27.2624
rtibia 20.2063
rfoot -18.2513 -17.0343
rtoes -7.60521
lfemur -43.5601 3.69319 -22.7067
ltibia 22.4681
lfoot -4.26263 17.3237
ltoes -11.8478
82
root 11.3316 18.1682 -19.4057 -162.803 34.2648 183.555
lowerback -8.9396 0.02504 -3.96261
upperback -6.31555 0.77895 1.63161
thorax -1.62101 0.751163 3.97134
lowerneck -4.00564 7.02168 4.7797
upperneck 10.1761 10.2637 -7.82199
head 4.34857 4.9916 -2.60321
rclavicle -1.78409e-014 -9.34288e-015
rhumerus -49.3121 15.9386 -84.3386
rradius 57.1562
rwrist -13.1009
rhand -16.2192 -33.7153
rfingers 7.12502
rthumb 9.98865 -63.4583
lclavicle -1.78409e-014 -9.34288e-015
lhumerus -57.0491 -5.52123 84.4444
lradius 36.8379
lwrist 0.614988
lhand -9.35204 -5.35702
lfingers 7.12502
lthumb 16.6075 23.9524
rfemur -12.3167 5.17488 27.4007
rtibia 19.8705
rfoot -18.0067 -17.0511
rtoes -9.20431
lfemur -43.5231 4.04776 -23.0872
ltibia 21.3201
lfoot -4.24942 18.8045
ltoes -11.4653
